<?xml version="1.0" encoding="utf-8"?>
<!-- Generator: Adobe Illustrator 19.2.0, SVG Export Plug-In . SVG Version: 6.00 Build 0)  -->
<svg version="1.1" id="Слой_1" xmlns="http://www.w3.org/2000/svg" xmlns:xlink="http://www.w3.org/1999/xlink" x="0px" y="0px"
	 viewBox="0 0 512 512" style="enable-background:new 0 0 512 512;" xml:space="preserve">
<style type="text/css">
	.st0{fill-rule:evenodd;clip-rule:evenodd;}
</style>
<g>
	<g>
		<path class="st0" d="M499.6,326.7c-25.3-21-51.3-45.2-77.2-70.8c26.2-24.9,52.4-48.4,77.6-69.1c6.7-6,10-14.1,10-22.5
			c0-8.4-3.3-17-9.8-24c-13.1-14-34.6-16.1-48.7-4.2c-26.2,20.1-53.2,43.1-80,67.7C341.8,172.6,313,141,286,111.6
			c27.6-23.2,55.5-44.3,83-61.7c14.6-10.7,15.7-29,4-39.2c-5.9-5.2-13.8-7.6-22.2-7.6c-8.3,0-17,2.1-24.4,6.7
			c-28,14.3-56.5,32.9-84.4,54.4c-20.4-21.7-39-40.7-55-55.4c-4.7-4.3-12.1-6.3-20.5-6.3c-8.4,0-17.6,2.1-25.7,6.8
			c-16.1,9.2-20.7,26.2-10.9,36.6c16.8,18.4,36.2,40.4,57.3,64.6c-31.4,28.9-61.2,60.3-87.8,91.8c-20.5-25.3-38.8-49-54.4-69.5
			c-9.3-11.4-25.6-7.5-34.7,8.1c-4.6,7.8-6.7,17-6.9,25.5c-0.1,8.5,1.8,16.3,5.8,21.8c13,19.9,29.3,42.9,48.1,67.3
			C38.2,281.6,21.8,307,9.1,330C5,336.1,2.9,344.2,3,352.6c0.1,8.3,2.3,17,7,24c9.4,14.1,26,16.5,35.3,4.2
			c14.9-22.6,33-47.7,53.7-73.9c26.1,30.8,55.2,62.1,86.1,91.4c-21.2,24.6-40.2,47.4-56.1,67.1c-9.7,11-5.5,28.4,10.3,37.9
			c7.9,4.8,17.1,7,25.5,7c8.4,0,15.8-2.2,20.5-6.7c15-16.1,33.2-35.9,53.7-58.2c28,22.3,56.8,42,85.8,57.2c7.8,4.7,16.8,7,25.2,7
			c8.4-0.1,16.2-2.5,21.6-7.7c10.9-10.4,8.7-28.7-6.3-39.8c-27.6-18.2-55.4-40-82.5-64c27.2-29.2,56.8-60.3,87.1-90.9
			c26.3,25.3,52.8,49,78.9,69.6c14.3,12,36.9,10.1,50.8-3.8c6.9-7,10.4-15.6,10.4-23.9C510,340.9,506.5,332.8,499.6,326.7z
			 M229.6,348.1c-30.6-30.6-59.9-62.7-86.8-93.9c27.4-31.6,57.5-63.4,88.8-93.4c27.2,30.7,56.4,63,86.4,94.4
			C287.1,285.8,257.2,317.6,229.6,348.1z"/>
	</g>
</g>
</svg>
