<?xml version="1.0" encoding="utf-8"?>
<!-- Generator: Adobe Illustrator 19.2.0, SVG Export Plug-In . SVG Version: 6.00 Build 0)  -->
<svg version="1.1" id="Слой_1" xmlns="http://www.w3.org/2000/svg" xmlns:xlink="http://www.w3.org/1999/xlink" x="0px" y="0px"
	 viewBox="0 0 512 512" style="enable-background:new 0 0 512 512;" xml:space="preserve">
<style type="text/css">
	.st0{fill:none;stroke:#000000;stroke-width:15;stroke-miterlimit:10;}
</style>
<g>
	<circle class="st0" cx="261.4" cy="287.4" r="156"/>
	<path class="st0" d="M498.9,86.5c0.5,27.2,6.4,354.7,0,361.6c-4.9,5.7-35.2,3.4-42.2,0s-18.1-13.1-18.9-22.6
		c-0.7-9.5,17.9-111.9,18.1-120.3s-14.3-9.4-18.1-17.5c-3.8-8.1,23.2-149.4,26.2-162C476.4,74.3,498.5,65,498.9,86.5z"/>
	<path class="st0" d="M41.9,249.7c0.3-16.8-14.4-32.9-25.8-48.6c-10.6-14.6-2.2-64.2,0-76c12.2-65.7,69.7-66.3,82.1,0.9
		c5.5,29.8,10.4,62.1,0,79.2c-11.3,18.5-21.5,28.5-20.5,44.5c0.6,10.7,13.1,164,14.4,177c3.4,34.4-65.5,31-62,2.5
		C32.1,412.8,41.6,267.5,41.9,249.7z"/>
</g>
</svg>
